<?xml version="1.0" encoding="UTF-8"?> <!-- Generator: Adobe Illustrator 26.0.2, SVG Export Plug-In . SVG Version: 6.00 Build 0) --> <svg xmlns="http://www.w3.org/2000/svg" xmlns:xlink="http://www.w3.org/1999/xlink" version="1.1" id="Warstwa_1" x="0px" y="0px" viewBox="0 0 166 179" style="enable-background:new 0 0 166 179;" xml:space="preserve"> <style type="text/css"> .st0{fill:#FFFFFF;} .st1{fill:#EAEBEC;} .st2{fill:#F0BE25;} .st3{fill:#E4A126;} .st4{fill:#0E0E0F;} </style> <g id="JS"> <path id="path118_00000078016769276076478750000007112491060605220511_" class="st0" d="M24.4,39.7v1.5c0,0.8,2.4,27.9,5.3,60.1 l5.2,58.6l23.5,6.6c12.9,3.6,23.8,6.6,24.1,6.6s11.3-2.9,24.5-6.6c21.1-5.8,23.9-6.7,24-7.4c0.2-1,10.5-117.3,10.5-118.5v-0.9H83 L24.4,39.7L24.4,39.7z"></path> <path id="path88_00000024712540589960509860000001570519445214311582_" class="st1" d="M58.6,166.9l-23.8-6.7l-0.3-1.8 C34.3,156.9,24,41.8,24,40.3c0-0.6,6-0.6,59-0.6c55.9,0,59,0,59,0.7c0,2.9-10.7,119.4-11,119.6c-0.3,0.3-46.3,13.1-47.8,13.3 C82.8,173.5,71.7,170.5,58.6,166.9L58.6,166.9z M98,143.4c8-2.2,14.6-4.1,14.8-4.2c0.1-0.1,1.1-9.6,2.1-21s1.9-21.5,2-22.5l0.2-1.7 H99.9H82.6v7.3v7.3h9.3h9.3l-0.2,0.9c-0.1,0.5-0.5,4.7-0.9,9.4c-0.4,4.9-0.9,8.7-1.2,8.9c-0.2,0.2-4,1.4-8.4,2.6l-8,2.1v7.5 c0,5.1,0.1,7.5,0.4,7.5C83.3,147.4,90,145.6,98,143.4L98,143.4z M116.9,84.8c-0.3-1.9-2.6-28-2.6-29c0-0.6-1.4-0.7-15.6-0.7H83v7.7 v7.7l7,0.3c3.9,0.1,7.9,0.4,9,0.5l2,0.2l0.5,6c0.3,3.3,0.6,6.7,0.7,7.5l0.2,1.5h7.3h7.3L116.9,84.8z"></path> <path id="path80_00000018218979640705394400000017844856542772113071_" class="st2" d="M58.4,166.5l-23.5-6.6l-5.2-58.6 C26.8,69,24.4,42,24.4,41.2v-1.5H83h58.6v0.9c0,1.2-10.3,117.5-10.5,118.5c-0.1,0.7-3,1.6-24,7.4c-13.1,3.6-24.1,6.6-24.5,6.6 C82.3,173.1,71.4,170.1,58.4,166.5L58.4,166.5z M98,143.7c8.1-2.3,14.9-4.3,15.1-4.5s1.1-10.2,2.2-22.1s2-22,2.1-22.4 c0.2-0.7-1.2-0.7-25.1-0.7H66.9L68,82.6c0.6-6.3,1.1-11.4,1.1-11.4s3.7-0.1,8.3-0.3c7.4-0.2,22.7,0.4,23.2,0.9 C100.7,72,102,84.3,102,86c0,0.8,0.1,0.8,7.7,0.8h7.7l-0.2-1.7c-0.1-0.9-0.7-8.1-1.5-15.9l-1.3-14.3l-29.6-0.1 c-23.5-0.1-29.6,0-29.6,0.4c0,0.3-0.2,2-0.4,3.9c-0.5,4.5-4.4,47.8-4.4,48.9v1h25.2h25.2l-0.2,1.5c-0.1,0.8-0.5,5-0.9,9.2 s-0.8,7.8-0.9,8c-0.4,0.4-15.2,4.3-16.1,4.3c-0.4,0-4.2-1-8.5-2.1l-7.7-2.1l-0.3-3.3c-0.1-1.8-0.4-4.4-0.5-5.8l-0.2-2.5H58h-7.5 v1.5c0,2.8,1.8,21.5,2.1,21.7c0.3,0.3,29.1,8.4,30,8.4C82.9,147.8,89.9,146,98,143.7L98,143.7z"></path> <path id="path78_00000011735356252722523370000013274507613452691861_" class="st3" d="M58.4,166.5l-23.5-6.6l-5.2-58.6 C26.8,69,24.4,42,24.4,41.2v-1.5H83h58.6v0.9c0,1.2-10.3,117.5-10.5,118.5c-0.1,0.7-3,1.6-24,7.4c-13.1,3.6-24.1,6.6-24.5,6.6 C82.3,173.1,71.4,170.1,58.4,166.5L58.4,166.5z M102.4,157.7c10.4-2.9,19-5.4,19.3-5.6c0.4-0.4,9.3-98.4,9.3-101.7v-1.1h-24H83V52 v2.8H69.1c-10.8,0-13.9,0.1-13.9,0.5c0,0.3-0.2,2-0.4,3.9c-0.5,4.5-4.4,47.8-4.4,48.9v1h16.2H83v11.5c0,8.9-0.1,11.5-0.5,11.5 c-0.3,0-4-1-8.2-2.1l-7.7-2.1l-0.3-3.3c-0.1-1.8-0.4-4.4-0.5-5.8l-0.2-2.5H58h-7.5v1.5c0.1,4.2,1.9,21.6,2.3,21.9 c0.3,0.1,7.2,2.1,15.3,4.4L83,148v7.5c0,4.1,0.1,7.5,0.3,7.5C83.4,162.9,92,160.5,102.4,157.7L102.4,157.7z M67.9,82.7 c0.6-6.2,1.1-11.3,1.2-11.4s3.2-0.2,7-0.4l6.8-0.2v11.6V94h-8h-8L67.9,82.7z"></path> <path id="path76_00000129187419504722229650000011526194200476348855_" class="st4" d="M61.6,25.7v-3.8H67h5.3v-7.3V7.2h3.8h3.7 v11.1v11.1h-9.1h-9.1L61.6,25.7L61.6,25.7z M83.4,26.5v-3h5c2.7,0,5-0.1,5-0.2s-2.2-2.6-5-5.6l-5-5.4V9.8V7.2h10.3H104v3v3 l-4.8,0.1l-4.8,0.1l5,5.4l5,5.4v2.6v2.6H93.9H83.4V26.5z"></path> </g> </svg> 